<?xml version="1.0" encoding="UTF-8" standalone="no"?>
<!-- Created with Inkscape (http://www.inkscape.org/) -->

<svg
   version="1.1"
   id="svg1"
   width="606"
   height="291"
   viewBox="0 0 606 291"
   xmlns="http://www.w3.org/2000/svg"
   xmlns:svg="http://www.w3.org/2000/svg">
  <defs
     id="defs1" />
  <g
     id="g1">
    <g
       id="g2"
       transform="translate(-2.9876764,-2.9876746)">
      <path
         style="fill:#c7d1d9;fill-opacity:1;stroke:#000000"
         d="m 23.901398,179.26047 83.779382,55.39647 -18.548486,19.04642 -16.930156,3.85908 -31.619556,-3.6101 -22.034101,-22.28308 -5.850862,-21.78512 2.240755,-15.80978 z"
         id="path18" />
      <path
         style="display:inline;fill:#f2ccad"
         d="m 135.01233,273.62398 c -14.39145,-6.69542 -15.75514,-10.13835 -15.75514,-11.44888 0,-0.57558 2.87285,-1.79342 4.17793,-1.79342 1.30509,0 3.98194,-2.7868 6.78048,-2.68226 l 5.90144,-1.18842 6.87021,2.34216 c 6.68544,2.27916 15.19126,10.90995 15.19126,12.50086 0,1.33106 -5.89805,8.17748 -6.97309,8.06672 -0.39024,-0.0402 -9.86809,-2.85415 -16.19309,-5.79676 z m 20.85996,-10.83038 -4.16088,-4.09813 3.22127,-1.90732 c 4.42991,-2.62295 3.79072,-0.12269 2.20385,-3.19135 -0.8371,-1.61879 -0.88198,-0.92034 -1.16477,-0.92034 -0.28279,0 -0.62885,-0.003 -2.78503,1.09747 -4.57916,2.33611 -10.0582,2.56182 -13.55608,0.56225 -3.56893,-2.04018 -6.94881,-2.16733 -11.66498,0.23868 -3.09169,1.57727 -6.59368,1.36367 -7.45092,0.48185 -0.84887,-0.87322 1.17698,-5.73163 4.74994,-8.98863 5.70339,-5.19898 14.5707,-6.93676 25.81516,-7.77238 4.78575,-0.35564 9.67072,-1.3116 13.37636,-3.11305 l 4.64502,-2.25811 6.50517,4.60913 c 4.01022,2.84137 7.04903,8.78938 9.33797,12.75072 0.4974,0.8608 -0.56126,1.2529 -4.88071,2.45382 -4.13126,1.14859 -6.08712,1.96658 -7.83338,3.90462 -4.6201,5.12747 -10.36225,9.1938 -11.0238,9.1765 -0.35433,-0.009 -4.17374,-1.21777 -5.33419,-3.02573 z"
         id="path11" />
      <path
         style="display:inline;fill:#ecda98"
         d="m 66.372749,202.95391 -12.793131,-9.28213 0.828978,-4.60505 c 0.933562,-5.18602 -0.897211,-7.81117 -4.205859,-9.31869 -3.875685,-1.76588 -6.973594,0.24137 -9.956135,2.58744 -2.89799,2.27956 -9.609113,2.5384 -11.456285,-3.81016 l -2.993887,-3.46559 7.474082,-13.04028 7.972028,-11.73319 4.241764,-4.38358 c 2.637118,-2.72528 5.731989,0.10835 8.333075,-2.83328 2.332492,-2.63787 5.526037,-3.98609 8.33021,-4.72567 2.314278,-0.61037 5.118885,-1.6391 5.471709,-2.20998 0.409005,-0.66178 3.485725,0.34254 4.656843,1.40238 2.277972,2.06154 4.750897,0.8806 8.140521,-0.93348 1.401036,-0.74981 2.804015,-1.94518 3.46007,-3.75947 1.455892,-4.02619 3.572664,-4.62392 10.134984,-3.99337 4.208701,0.40441 7.048804,2.40408 7.570494,4.12016 0.35537,1.169 2.14681,3.06856 2.992,4.03106 0.91672,1.04396 -0.96926,4.08412 -1.63751,4.08412 -0.6161,0 -2.15542,2.71929 -3.991258,4.33118 -2.376493,2.08659 -6.586707,0.89312 -7.616863,0.24138 -0.795797,-0.50347 -2.577707,-0.20649 -4.682515,-0.21491 -7.988679,-0.032 -8.836349,7.2783 -3.876241,13.61944 1.075541,1.375 1.68544,4.84185 1.69767,6.03046 0.02109,2.04995 -6.49448,8.42815 -8.486083,8.42815 -2.462354,0 -4.207478,1.99278 -4.207478,6.1665 0,3.07502 1.922803,4.00264 3.338229,5.28358 1.559664,1.41148 2.031122,3.73353 2.031122,8.23182 0,4.5957 -0.04946,5.65823 1.830238,7.91033 2.067011,2.47653 4.544484,11.64563 3.798051,11.42303 -0.151624,-0.0452 -9.743113,-4.00766 -16.398823,-9.5822 z m 2.756873,-34.77225 c 3.798002,-4.1685 2.350979,-6.18256 -1.522337,-10.05587 -3.808041,-3.80804 -4.175868,-3.7937 -8.44827,-1.76631 -3.801911,1.80412 -3.669286,3.20817 -3.669286,7.81555 0,4.22159 0.169085,5.00979 3.866021,6.66338 4.340363,1.94138 6.493985,0.94308 9.773872,-2.65675 z m 45.319408,-32.9286 c 0.68775,-1.79225 10.48706,0.30044 11.10282,2.17016 0.26902,0.81687 -6.34111,4.42441 -8.33555,4.42441 -2.34819,0 -3.22575,-5.39978 -2.76727,-6.59457 z"
         id="path10" />
      <path
         style="display:inline;fill:#b0654a"
         d="m 161.7271,279.86373 c -3.40616,-1.2976 -4.43441,-7.40451 -0.72973,-7.69922 1.38126,-0.10988 2.56134,-0.5545 3.45188,-0.5826 l 4.32643,2.67682 c 3.26854,2.02228 2.34529,4.32056 1.17054,5.73605 -1.62262,1.95514 -0.57083,2.78263 -4.2978,1.36281 z M 91.580731,252.51666 c 0,-0.21709 5.539011,-5.2843 10.087789,-8.5227 l 8.22048,-8.25248 7.45264,4.45184 5.27411,4.07839 -3.46326,3.48076 c -1.44913,1.45645 -2.75943,4.4192 -2.96425,5.03367 -0.26937,0.80812 -2.42049,0.40615 -4.3577,-0.4765 -1.99922,-0.9109 -3.03204,-1.45201 -4.78856,-0.0587 -2.79632,2.21817 -15.461249,0.88169 -15.461249,0.26568 z M 42.736236,188.82597 c -1.916912,-1.55222 0.847468,-5.25534 2.125657,-6.31614 2.509945,-2.08307 6.974074,4.51813 5.298131,7.22986 -0.831024,1.34463 -4.951664,1.08809 -7.423788,-0.91372 z m 16.323168,-20.42755 c -1.324368,-1.32437 0.466571,-9.17346 2.10052,-9.80046 2.216216,-0.85045 7.367596,3.85806 7.003575,6.40584 -0.295725,2.06979 -7.692741,4.80597 -9.104095,3.39462 z m 14.387307,-34.87224 c -1.947236,-1.23427 -0.09864,-6.99333 2.205043,-7.43283 2.65343,-0.50624 6.16449,4.29484 4.861518,6.72947 -1.074186,2.00713 -4.941913,2.05008 -7.066561,0.70336 z m 32.488299,-0.48024 c -1.60625,-1.93541 0.59904,-6.83954 2.86988,-6.83954 2.85317,0 6.03833,4.34595 4.72316,6.80338 -1.29228,2.41464 -5.8933,2.08422 -7.59304,0.0362 z"
         id="path6" />
      <path
         style="fill:#010101"
         d="m 160.5,284.93149 c -2.32078,-1.48709 -4.03547,-1.78629 -7.57347,-1.32149 -4.88013,0.64111 -4.43493,0.79517 -23.90115,-8.27081 C 117.17679,269.82096 115,267.87549 115,262.80425 c 0,-5.50187 -2.68517,-6.56183 -12.11536,-4.78248 -5.442357,1.0269 -8.33793,1.08627 -12.313074,0.25247 -4.463292,-0.93618 -6.035928,-0.80573 -11.134468,0.92365 -8.037275,2.72616 -26.157757,2.132 -34.289719,-1.12434 -18.351292,-7.34853 -30.38595,-22.15581 -33.836968,-41.63254 -1.54258,-8.70595 -1.5386143,-9.87026 0.06135,-18.01331 1.769752,-9.00715 3.901007,-13.94958 12.258481,-28.4277 2.698637,-4.675 6.02332,-10.67444 7.388183,-13.3321 4.167413,-8.11476 7.886328,-11.73174 12.717449,-12.36884 3.46061,-0.45637 4.885497,-1.35138 7.785235,-4.89013 2.601126,-3.17433 4.541777,-4.51597 7.264122,-5.02194 4.626721,-0.85991 8.142066,-3.31445 8.183339,-5.71391 0.01728,-1.00481 1.34681,-3.14231 2.954502,-4.75 3.256331,-3.25633 7.656677,-3.85318 11.362106,-1.5411 1.218149,0.76008 6.187102,1.66538 11.042117,2.01177 7.890865,0.56299 9.098625,0.41638 11.384865,-1.38197 4.81711,-3.78914 11.87368,-1.84008 14.26827,3.94098 0.85731,2.06973 2.0964,3.02667 4.50385,3.47831 3.52594,0.66147 6.51572,4.09279 6.51572,7.47798 0,1.08868 -1.0865,3.24202 -2.41444,4.78519 -2.26647,2.63382 -2.80269,2.77968 -8.75,2.38022 -12.26747,-0.82396 -13.5691,-0.65402 -16.12651,2.10547 -3.269343,3.52767 -6.265369,4.28662 -10.892966,2.75937 -3.395116,-1.12049 -4.108772,-1.07519 -5.535299,0.35134 -1.516891,1.51689 -1.432851,2.01398 1.139533,6.7403 2.085098,3.83101 2.626885,5.90388 2.174029,8.31781 -0.705423,3.76023 -4.968473,8.75912 -9.443076,11.07302 -3.741128,1.93461 -3.9122,3.13902 -0.901276,6.34534 1.786914,1.90288 2.25,3.56267 2.25,8.06445 0,4.53964 0.517597,6.36542 2.599192,9.16844 3.002448,4.04301 5.897732,11.03673 5.907641,14.27024 0.0043,1.40052 1.212955,3.031 3.25,4.38422 1.783742,1.18496 9.922482,6.51515 18.086082,11.84487 l 14.8429,9.69041 6.1571,-2.7741 c 4.38269,-1.97464 8.89487,-3.03655 15.65709,-3.68478 5.225,-0.50088 10.97777,-1.54522 12.78393,-2.32077 4.2724,-1.83453 6.15104,-1.77892 8.39122,0.24842 1.75285,1.58631 1.66897,1.73179 -1.92658,3.34156 -4.86724,2.17913 -12.00367,3.7198 -20.74857,4.47936 -7.81424,0.67873 -13.91848,3.16392 -20.25,8.2443 -4.33047,3.47474 -5.50242,6.85844 -2.74228,7.91761 0.82925,0.31821 2.74175,-0.24231 4.25,-1.24559 3.22855,-2.14762 13.4722,-2.56583 15.40895,-0.62908 1.81641,1.81641 6.37098,1.50339 11.0552,-0.75978 2.26889,-1.0962 4.23557,-1.88278 4.37041,-1.74795 0.13483,0.13484 0.52867,1.3748 0.8752,2.75547 0.54136,2.15694 0.1657,2.69136 -2.66872,3.79653 l -3.29876,1.28623 3.46223,2.95141 c 1.90422,1.62328 4.07198,2.95142 4.81723,2.95142 0.74525,0 3.91225,-2.62288 7.03777,-5.82861 4.39922,-4.51212 6.9794,-6.25218 11.42343,-7.70391 5.65774,-1.84821 5.76199,-1.84708 7.21819,0.0786 0.81265,1.07465 1.49185,2.24739 1.50935,2.60608 0.0423,0.86761 -5.73392,2.84783 -8.30701,2.84783 -1.17765,0 -4.08422,2.21157 -6.87419,5.23048 l -4.83381,5.23047 3.75068,3.14889 c 3.20249,2.68865 3.75068,3.7429 3.75068,7.21315 0,8.08593 -7.70982,11.75072 -14.95455,7.1085 z m 9.3162,-6.65593 c 0.23104,-1.62536 -0.57691,-2.76895 -3,-4.24626 -1.82391,-1.112 -3.60492,-2.02351 -3.95779,-2.02556 -0.55964,-0.003 -1.36671,2.26862 -1.95252,5.49626 -0.25136,1.38494 4.16558,3.56551 6.59411,3.25539 1.20272,-0.15358 2.12605,-1.14214 2.3162,-2.47983 z m -15.28462,-2.72807 c 2.94383,-3.85957 2.93056,-6.49279 -0.0404,-8.02237 -1.09513,-0.56382 -4.01614,-2.397 -6.49114,-4.07374 -2.475,-1.67674 -6.43527,-3.89285 -8.80059,-4.92469 -4.26823,-1.86195 -4.33427,-1.8597 -8.77675,0.29862 C 127.96077,260.02139 124.60854,261 122.97325,261 120.63565,261 120,261.44139 120,263.06461 c 0,1.62317 1.87088,2.92244 8.75,6.07662 4.8125,2.20661 11.45,5.30331 14.75,6.88157 3.3,1.57826 6.5396,2.89378 7.19911,2.92338 0.65951,0.0296 2.38412,-1.49981 3.83247,-3.39869 z M 77.003182,254.11507 c 3.57325,-1.0367 8.507505,-2.9492 10.965011,-4.25 C 92.248548,247.59942 105,235.78152 105,234.08019 c 0,-0.45005 -2.79739,-2.56471 -6.21643,-4.69923 C 95.364534,227.24643 87.684351,222.2375 81.716497,218.25 75.748643,214.2625 70.73109,211 70.566379,211 c -0.164711,0 -4.643747,-2.925 -9.953414,-6.5 -5.309668,-3.575 -9.798807,-6.5 -9.975865,-6.5 -0.177059,0 -6.04955,-3.825 -13.049981,-8.5 -7.00043,-4.675 -13.044013,-8.5 -13.430183,-8.5 -0.75913,0 -2.80814,3.88731 -5.781054,10.9676 -2.859879,6.8111 -2.663654,24.50665 0.357914,32.2766 2.940394,7.56122 6.263166,12.70645 11.488518,17.78968 12.395935,12.05879 30.628741,16.76742 46.780868,12.08119 z m 29.217918,-2.72941 c 2.87605,-1.48726 3.33877,-1.48615 5.87848,0.0141 2.6049,1.53875 2.79014,1.52308 3.36388,-0.28462 0.33394,-1.05217 1.70833,-3.01419 3.05418,-4.36004 l 2.447,-2.44701 -5.4161,-3.73021 -5.41611,-3.73022 -3.81621,4.26126 c -3.93782,4.39703 -7.583567,7.86755 -10.906378,10.38216 -1.751902,1.3258 -1.51292,1.44795 2.889818,1.47713 2.63981,0.0175 6.20446,-0.69465 7.92144,-1.58254 z M 82.254277,209.75 c -0.562154,-2.26478 -3.59085,-7.11945 -5.971364,-9.57143 -0.758269,-0.78103 -1.289978,-3.84814 -1.30019,-7.5 -0.01473,-5.26747 -0.383384,-6.52584 -2.5,-8.53353 C 71.117226,182.84981 70,180.6777 70,179.31812 70,176.59449 74.943702,171 77.350497,171 79.407648,171 83,166.23097 83,163.5 c 0,-1.22666 -0.9,-3.37445 -2,-4.77287 -2.897853,-3.68402 -2.63909,-9.17895 0.584031,-12.40207 2.417029,-2.41703 2.999973,-2.54142 9.019915,-1.92466 5.328793,0.54596 6.539313,0.38985 7.03715,-0.9075 0.330697,-0.86178 1.862669,-2.21917 3.404384,-3.01642 l 2.80312,-1.44955 -2.1743,-4.01409 c -2.336691,-4.31389 -2.77173,-4.56036 -9.796829,-5.55031 -4.590718,-0.6469 -4.635449,-0.62493 -6.5,3.19304 -1.125933,2.30553 -3.318982,4.61626 -5.478611,5.77258 -3.574155,1.91371 -3.632335,1.91272 -7.764184,-0.13155 -2.289675,-1.13285 -4.400554,-1.67542 -4.690842,-1.20572 -0.290289,0.4697 -2.421406,1.39303 -4.735816,2.05185 -2.654878,0.75573 -5.684381,2.75154 -8.208018,5.40736 -2.970502,3.12609 -5.070921,4.38789 -8.160942,4.90256 -2.288518,0.38118 -4.839689,1.44777 -5.669267,2.3702 -1.604849,1.78448 -13.68814,23.13098 -13.643171,24.10221 0.01464,0.31622 2.361295,2.02903 5.214786,3.80625 l 5.188166,3.23132 2.589933,-2.48132 c 3.959198,-3.79315 9.960707,-3.48197 13.478655,0.69887 2.112255,2.51027 2.545691,3.82685 2.057594,6.25 -1.343875,6.67166 -1.419873,6.55026 7.944246,12.69041 4.95,3.24577 9.675,6.20113 10.5,6.56746 0.825,0.36634 1.725,0.94997 2,1.29697 0.80569,1.01663 5.382686,4.01498 6.128887,4.01498 0.37613,0 0.432556,-1.0125 0.12539,-2.25 z M 59.5,172.05464 c -5.501514,-2.25172 -7.403219,-8.50102 -4.114368,-13.52044 2.377563,-3.62862 6.060801,-4.872 10.293831,-3.47497 4.402633,1.453 6.533907,4.78155 6.13546,9.58216 -0.251073,3.02498 -1.003843,4.25698 -3.712806,6.07644 -3.580784,2.40501 -5.328608,2.67663 -8.602117,1.33681 z m 6.052974,-6.11318 c 1.426956,-1.57676 1.613669,-2.45439 0.797804,-3.75 -1.365774,-2.16886 -4.043252,-2.69157 -5.898817,-1.15159 -1.882781,1.56257 -1.841429,3.42781 0.119468,5.3887 2.052287,2.05229 2.744697,1.98458 4.981545,-0.48711 z m -16.017583,21.94703 c 0.892795,-2.81295 -1.610935,-5.31668 -4.423884,-4.42388 -2.715631,0.86191 -2.673897,2.24564 0.138493,4.59183 2.898243,2.41781 3.471839,2.39533 4.285391,-0.16795 z M 122.81955,137.75 C 122.25603,133.78218 115,134.59175 115,138.62244 c 0,0.94441 1.27961,1.37756 4.06955,1.37756 3.64829,0 4.03647,-0.23291 3.75,-2.25 z m -43.364263,-5.60912 c 0.998098,-3.14473 -0.437979,-5.28081 -3.324483,-4.94498 -2.653563,0.30874 -3.815552,2.57729 -2.746762,5.36251 0.816253,2.12712 5.362844,1.81444 6.071245,-0.41753 z m 33.000003,0 C 113.36496,129.27475 112.03194,127 109.4427,127 c -2.89474,0 -4.64547,2.7526 -3.32272,5.22418 1.27007,2.37316 5.57362,2.31657 6.33531,-0.0833 z M 432.5,232.57644 c -5.20154,-2.3325 -11.02449,-8.2071 -14.38561,-14.51321 -4.10936,-7.70995 -5.67078,-20.36925 -4.23223,-34.31323 1.61319,-15.63684 7.16474,-27.92561 17.12371,-37.90455 6.28246,-6.29506 10.0589,-7.83098 19.27625,-7.83987 7.1005,-0.007 12.02494,1.95094 17.08709,6.79325 5.0892,4.86819 7.58162,10.43575 7.60883,16.99662 0.0288,6.93951 -2.86442,10.20455 -9.04238,10.20455 -3.59473,0 -4.89932,-0.68004 -9.67131,-5.04138 -3.03384,-2.77276 -6.02194,-4.87493 -6.64021,-4.67149 -2.56818,0.84504 -7.75278,9.32592 -9.77871,15.99585 -3.48836,11.48466 -2.64399,26.14954 1.71388,29.76624 1.19242,0.98962 2.33494,0.38799 6.29164,-3.31303 9.04547,-8.46098 13.9379,-9.6165 19.61425,-4.6326 3.19939,2.8091 3.5348,3.59938 3.5348,8.32856 0,4.16925 -0.62604,6.17011 -3.09843,9.90273 -3.5486,5.35742 -9.71779,10.97168 -15.11173,13.75242 -4.43661,2.2872 -15.67588,2.55816 -20.28984,0.48914 z m 18.63925,-3.64748 c 5.489,-2.80028 12.60876,-9.51469 14.94504,-14.09417 3.2296,-6.33056 2.1401,-12.03858 -2.64509,-13.85791 -3.45703,-1.31436 -6.24142,0.0218 -13.45116,6.45495 -3.4322,3.06249 -6.81859,5.56817 -7.52531,5.56817 -2.34282,0 -6.26847,-5.86698 -7.3736,-11.02003 -2.143,-9.99242 -0.3052,-23.07127 4.6058,-32.7777 C 442.23239,164.18706 447.92227,158 449.997,158 c 0.51007,0 3.70118,2.475 7.09136,5.5 6.75681,6.02898 9.63581,6.77583 13.03118,3.38046 1.78274,-1.78274 2.01899,-2.85532 1.48677,-6.75 -1.87407,-13.71402 -15.02525,-21.86118 -29.10631,-18.03137 -6.06012,1.64825 -14.39762,10.71788 -19.32243,21.01919 -5.50864,11.52248 -6.50053,16.97741 -5.99336,32.96058 0.39125,12.32981 0.66037,13.89311 3.30964,19.22536 3.08219,6.20357 8.7419,12.02159 13.86149,14.2492 4.70962,2.04924 12.0806,1.77499 16.78391,-0.62446 z m 64.29784,-6.99406 -2.93709,-3.0651 -0.65264,-24.1849 c -0.35895,-13.30169 -0.69645,-27.8974 -0.75,-32.4349 L 511,154 h -5.36351 C 491.84758,154 484,150.08751 484,143.21291 c 0,-2.55935 0.86498,-4.27789 3.45858,-6.87149 l 3.45859,-3.45859 35.47711,0.30859 35.4771,0.30858 3.06431,2.93709 c 4.18833,4.01445 4.24386,9.21071 0.14744,13.79713 l -2.91686,3.26578 -14.1021,0.34633 -14.10211,0.34632 0.68003,31.9399 0.68002,31.9399 -3.35722,3.46377 C 528.99613,224.59921 528.01561,225 523.49092,225 c -4.40392,0 -5.5259,-0.427 -8.05383,-3.0651 z m 13.70213,-1.85559 2.36078,-1.92068 -0.1542,-26.32932 c -0.0848,-14.48112 -0.43661,-29.54241 -0.78176,-33.46954 l -0.62755,-7.14023 15.12622,-0.36894 15.12622,-0.36893 2.40554,-2.7966 c 4.3377,-5.04288 2.4641,-9.36719 -4.65373,-10.74091 -2.44241,-0.47138 -18.08786,-0.87666 -34.76766,-0.90061 L 492.84615,136 l -2.92307,2.92308 c -3.53564,3.53564 -3.64633,5.04884 -0.58001,7.92949 2.56045,2.40542 10.65078,4.13198 19.40693,4.14164 L 514,151 l 0.0575,4.25 c 0.0316,2.3375 0.41384,17.48849 0.84942,33.66886 0.77764,28.88692 0.83284,29.45196 3.05332,31.25 2.93867,2.37959 8.19587,2.33748 11.17902,-0.0896 z M 219.5,221.1957 c -6.87889,-4.37806 -6.71301,-3.53981 -5.50652,-27.82581 1.77366,-35.70293 2.75445,-45.22596 5.03846,-48.92157 2.34568,-3.79538 6.04123,-6.44832 8.98254,-6.44832 5.58483,0 14.11839,8.12605 22.33508,21.26852 l 5.4821,8.76853 0.33417,-11.94095 c 0.30852,-11.02453 0.52023,-12.13877 2.75848,-14.51853 3.35739,-3.56962 10.70978,-3.65654 14.75795,-0.17446 2.53801,2.18311 2.85557,3.21306 3.46869,11.25 0.37119,4.86579 0.71408,20.70439 0.76198,35.19689 L 278,214.2 l -3.4,3.4 c -4.67774,4.67774 -9.98344,4.75826 -15.1411,0.22977 -3.29601,-2.89394 -13.90508,-18.14649 -19.06572,-27.41061 l -2.10682,-3.78206 -0.67045,9.43145 c -1.25793,17.69559 -1.70633,20.00111 -4.49757,23.12477 -3.44202,3.85195 -9.34787,4.72031 -13.61834,2.00238 z m 11.77512,-5.36238 c 1.6032,-2.14731 2.09907,-5.59763 3.08219,-21.44617 l 1.17161,-18.88715 9.90019,16.42413 C 255.72942,209.01207 263.08197,218 266.7604,218 c 1.17044,0 3.39067,-1.08498 4.93384,-2.41106 2.76236,-2.37377 2.81117,-2.60964 3.15575,-15.25 0.1925,-7.06142 0.0279,-22.02399 -0.36576,-33.25016 -0.68704,-19.59209 -0.80962,-20.50508 -3.05454,-22.75 -2.94834,-2.94834 -7.47199,-3.05422 -10.0247,-0.23464 -1.63452,1.8054 -1.97907,4.21032 -2.42675,16.93843 -0.28697,8.15886 -0.79467,15.1072 -1.12823,15.44075 -0.33355,0.33356 -4.00456,-4.92624 -8.15778,-11.68843 -8.93251,-14.5437 -13.3418,-19.92618 -18.21948,-22.2408 -3.3485,-1.58896 -3.76519,-1.59249 -6.11655,-0.0518 -5.22031,3.42048 -5.98206,8.33315 -8.29528,53.49774 -0.94149,18.38213 -0.93355,18.51146 1.24578,20.29831 5.04488,4.13635 9.65648,3.971 12.96842,-0.46499 z M 292.5,221.1957 c -6.87889,-4.37806 -6.71301,-3.53981 -5.50652,-27.82581 1.77366,-35.70293 2.75445,-45.22596 5.03846,-48.92157 2.34568,-3.79538 6.04123,-6.44832 8.98254,-6.44832 5.58483,0 14.11839,8.12605 22.33508,21.26852 l 5.4821,8.76853 0.33417,-11.94095 c 0.30852,-11.02453 0.52023,-12.13877 2.75848,-14.51853 3.35739,-3.56962 10.70978,-3.65654 14.75795,-0.17446 2.53801,2.18311 2.85557,3.21306 3.46869,11.25 0.37119,4.86579 0.71408,20.70439 0.76198,35.19689 L 351,214.2 l -3.4,3.4 c -4.67774,4.67774 -9.98344,4.75826 -15.1411,0.22977 -3.29601,-2.89394 -13.90508,-18.14649 -19.06572,-27.41061 l -2.10682,-3.78206 -0.67045,9.43145 c -1.25793,17.69559 -1.70633,20.00111 -4.49757,23.12477 -3.44202,3.85195 -9.34787,4.72031 -13.61834,2.00238 z m 11.77512,-5.36238 c 1.6032,-2.14731 2.09907,-5.59763 3.08219,-21.44617 l 1.17161,-18.88715 9.90019,16.42413 C 328.72942,209.01207 336.08197,218 339.7604,218 c 1.17044,0 3.39067,-1.08498 4.93384,-2.41106 2.76236,-2.37377 2.81117,-2.60964 3.15575,-15.25 0.1925,-7.06142 0.0279,-22.02399 -0.36576,-33.25016 -0.68704,-19.59209 -0.80962,-20.50508 -3.05454,-22.75 -2.94834,-2.94834 -7.47199,-3.05422 -10.0247,-0.23464 -1.63452,1.8054 -1.97907,4.21032 -2.42675,16.93843 -0.28697,8.15886 -0.79467,15.1072 -1.12823,15.44075 -0.33355,0.33356 -4.00456,-4.92624 -8.15778,-11.68843 -8.93251,-14.5437 -13.3418,-19.92618 -18.21948,-22.2408 -3.3485,-1.58896 -3.76519,-1.59249 -6.11655,-0.0518 -5.22031,3.42048 -5.98206,8.33315 -8.29528,53.49774 -0.94149,18.38213 -0.93355,18.51146 1.24578,20.29831 5.04488,4.13635 9.65648,3.971 12.96842,-0.46499 z m 66.147,5.03478 c -2.55924,-0.57595 -5.35231,-2.23611 -7.5,-4.45787 l -3.42212,-3.54015 0.12529,-28.50074 0.12529,-28.50073 2.88725,-5.64556 c 1.87699,-3.67017 4.37756,-6.69299 7.14644,-8.63904 3.84874,-2.70499 5.14853,-3.02756 13.48746,-3.34716 10.6918,-0.40977 14.70134,1.03715 18.45834,6.66103 C 407.29888,153.23389 401.44422,161 389.59114,161 c -4.91149,0 -5.05871,0.1126 -6.02119,4.60518 l -0.66524,3.10518 5.79764,0.59376 c 5.03283,0.51543 6.24132,1.07657 9.16083,4.25364 2.90986,3.16656 3.28521,4.15068 2.78467,7.30106 -0.85129,5.35795 -5.99604,9.72632 -12.5101,10.62223 -4.7168,0.64873 -5.13775,0.92425 -5.13775,3.36279 0,2.6517 0.0133,2.65616 7.93434,2.65616 7.41565,0 8.13475,0.19201 11,2.93709 2.5836,2.47525 3.06566,3.68865 3.06566,7.71667 0,9.24491 -8.2164,13.98819 -23.79922,13.73915 -3.68543,-0.0589 -8.53583,-0.52007 -10.77866,-1.02481 z m 25.17886,-4.34585 C 401.69572,213.97571 403.97362,206.97362 400,203 c -2.21117,-2.21117 -3.42757,-2.39843 -13.25,-2.03985 l -6.75,0.24642 -0.011,-2.85328 c -0.006,-1.56931 -0.28993,-4.54079 -0.63084,-6.60329 L 378.73832,188 h 5.6805 C 393.04365,188 397,185.36143 397,179.60934 c 0,-4.16512 -2.35441,-5.90501 -9.61775,-7.10743 l -6.88225,-1.13933 0.0368,-5.07194 c 0.0454,-6.2609 1.59419,-8.28893 6.33563,-8.29622 5.70967,-0.009 11.00582,-1.87899 12.71712,-4.49076 1.34212,-2.04833 1.37712,-2.79189 0.24054,-5.11045 -2.16876,-4.42417 -6.1883,-6.71917 -12.57765,-7.18133 -8.19284,-0.59262 -14.03448,1.24195 -18.33499,5.75809 -5.40805,5.67922 -5.99951,9.31603 -6.22077,38.25106 l -0.19669,25.72103 3.07745,3.08719 c 2.13979,2.14656 4.57727,3.35413 8,3.96334 6.05864,1.07837 17.79966,0.29451 22.02353,-1.47034 z m -232.60745,1.54341 c -4.81074,-1.46336 -8.52647,-3.94334 -13.09084,-8.7372 -9.80103,-10.29382 -12.27039,-17.92133 -11.71034,-36.17157 0.47963,-15.6296 2.28729,-20.4516 10.65543,-28.42371 7.71574,-7.35058 12.76162,-9.16424 23.61282,-8.48726 10.32892,0.6444 15.92198,3.10969 21.54322,9.49576 12.04612,13.68511 15.19267,36.92891 7.36141,54.37927 -2.92322,6.51381 -11.18233,15.06903 -16.82253,17.42565 -3.69348,1.54324 -17.11911,1.86662 -21.54917,0.51906 z m 18.69137,-3.12155 c 8.50667,-3.19068 14.72778,-10.3177 18.35431,-21.02703 1.85208,-5.46929 2.11214,-8.04726 1.7607,-17.45438 -0.36432,-9.75212 -0.7712,-11.80419 -3.49433,-17.62338 -3.78533,-8.08906 -9.47129,-14.56737 -14.90167,-16.97825 -2.25285,-1.00017 -7.25792,-2.11236 -11.12237,-2.47152 -6.17765,-0.57415 -7.67579,-0.35447 -12.40391,1.81888 -7.79312,3.58221 -11.39057,7.057 -15.09536,14.58064 -3.1801,6.4581 -3.28227,7.05538 -3.28227,19.18826 0,14.56564 1.37386,19.72797 7.543,28.34308 6.04455,8.44111 13.9078,12.55668 24.1419,12.6357 3.1267,0.0241 6.9517,-0.43126 8.5,-1.012 z m -14.29634,-17.84888 c -8.17928,-4.98758 -12.39959,-18.31292 -9.31644,-29.41601 1.16374,-4.19085 6.95181,-11.23465 10.03625,-12.21362 3.52572,-1.11902 10.58769,4.00109 13.53171,9.81083 5.26661,10.39315 4.14908,23.16971 -2.61853,29.93732 -4.27495,4.27495 -6.98821,4.71378 -11.63299,1.88148 z m 12.17848,-8.25093 c 4.11526,-9.14098 1.29918,-22.95512 -5.69473,-27.93522 -4.21705,-3.0028 -7.19501,-1.91914 -10.58236,3.85085 -5.36334,9.13588 -2.59222,23.55587 5.56529,28.95988 3.03822,2.0127 3.61145,2.09022 6.06704,0.82038 1.52291,-0.78753 3.55924,-3.28469 4.64476,-5.69589 z M 380.36671,109.13349 C 374.44786,105.42696 374,103.96765 374,88.387962 c 0,-21.090309 4.25481,-39.31813 11.99243,-51.37616 3.99737,-6.229364 13.98485,-15.686536 18.60468,-17.616825 5.11215,-2.13599 15.9927,-2.872536 21.27091,-1.439909 9.63519,2.615209 17.70451,14.073768 20.60843,29.264268 C 448.73605,59.039377 451,82.128514 451,93.353213 v 10.439607 l -3.5348,3.10359 c -5.05983,4.44259 -9.3111,4.25236 -14.56873,-0.6519 -3.89305,-3.6314 -4.07286,-4.08574 -5.44183,-13.75 -0.77867,-5.496981 -1.4245,-10.369939 -1.4352,-10.828796 -0.0187,-0.800871 -19.04308,-0.120627 -25.76944,0.921422 l -3.25,0.50349 v 10.25852 10.258524 l -3.33482,3.23223 c -4.27009,4.13874 -9.03867,4.96117 -13.29847,2.29359 z m 11.17874,-4.58804 C 393.84013,102.25078 394,101.40636 394,91.580638 c 0,-9.088058 0.24298,-10.640308 1.79562,-11.471259 0.9876,-0.528544 8.81248,-1.281916 17.38863,-1.67416 l 15.59299,-0.713171 0.58215,3.888976 c 0.32017,2.138937 0.87464,6.588976 1.23213,9.888976 0.91941,8.486896 2.71688,12.30575 6.55088,13.91783 3.77032,1.5853 8.32099,0.45335 9.87871,-2.45727 1.53059,-2.85993 1.15801,-15.896167 -0.99186,-34.70468 -2.83726,-24.822258 -5.8826,-34.836501 -12.65253,-41.606431 -4.79602,-4.79602 -8.2397,-6.111649 -15.87672,-6.065561 -8.96087,0.05408 -14.90677,2.647094 -21.4324,9.346706 -6.28379,6.451337 -10.20855,13.375295 -13.93866,24.590279 -3.90179,11.731115 -5.39339,22.606509 -4.9715,36.247545 0.31234,10.098842 0.55643,11.303362 2.76687,13.653762 3.2325,3.43718 8.25398,3.49044 11.62114,0.12327 z M 397,62.742416 c 0,-2.277315 7.53064,-17.046897 10.46689,-20.528333 3.40892,-4.041882 7.99365,-6.520077 10.55711,-5.706467 2.89297,0.918194 5.75874,5.560703 7.45676,12.079838 C 427.41631,56.018524 427.46655,61 425.60595,61 423.27543,61 403.71942,62.963043 400.25,63.545245 397.92072,63.93612 397,63.70868 397,62.742416 Z m 19.70559,-4.298199 7.2056,-0.638281 -0.5483,-3.152968 C 422.49189,49.644344 420.89392,44.686202 419.3655,42.25 416.28952,37.3471 411.49912,40.715616 405.61003,51.922567 403.62451,55.701012 402,59.103716 402,59.484131 c 0,0.380416 1.6875,0.445672 3.75,0.145015 2.0625,-0.300657 6.99252,-0.833875 10.95559,-1.184929 z M 45.5,107.57644 C 40.298461,105.24394 34.475509,99.369344 31.114386,93.063232 27.005025,85.353281 25.443614,72.69398 26.882157,58.75 28.495345,43.113159 34.046904,30.824392 44.005872,20.845447 c 6.282455,-6.295056 10.058901,-7.83098 19.276247,-7.83987 7.100503,-0.0068 12.024938,1.950941 17.087088,6.79325 5.089207,4.868191 7.581621,10.435752 7.608831,16.996628 C 88.006818,43.734956 85.113622,47 78.935664,47 c -3.594736,0 -4.89932,-0.680042 -9.671317,-5.041379 -3.03384,-2.772759 -6.021934,-4.87493 -6.64021,-4.671491 -2.568181,0.845039 -7.752778,9.325918 -9.778708,15.995852 -3.488358,11.48466 -2.643985,26.149533 1.713879,29.766239 1.19242,0.989621 2.334946,0.387993 6.291643,-3.313034 9.045467,-8.460975 13.937903,-9.616496 19.614253,-4.632595 C 83.664589,77.91269 84,78.702972 84,83.432148 c 0,4.169249 -0.626043,6.170115 -3.098427,9.902734 -3.548604,5.357415 -9.717796,10.971678 -15.111735,13.752418 -4.436606,2.2872 -15.675875,2.55816 -20.289838,0.48914 z m 18.639251,-3.64748 c 5.488994,-2.80028 12.608758,-9.514692 14.945035,-14.094174 3.229608,-6.330555 2.140106,-12.038575 -2.645088,-13.857903 -3.457029,-1.31436 -6.241414,0.02181 -13.451163,6.454948 C 59.555836,85.494324 56.169449,88 55.46273,88 53.119906,88 49.194257,82.133025 48.089125,76.979973 45.946134,66.98755 47.783927,53.908696 52.694929,44.202274 55.232395,39.187061 60.922268,33 62.996996,33 c 0.510072,0 3.701188,2.475 7.091367,5.5 6.756802,6.02898 9.635805,6.775832 13.031176,3.380461 1.782743,-1.782743 2.018992,-2.855325 1.486771,-6.75 C 82.73224,21.416435 69.581065,13.269275 55.5,17.099086 c -6.06012,1.64825 -14.39762,10.717889 -19.322435,21.019191 -5.508631,11.52248 -6.500523,16.977414 -5.993351,32.960583 0.391245,12.329809 0.660366,13.893106 3.309641,19.225357 3.082182,6.203571 8.741891,12.021593 13.861486,14.249203 4.70962,2.04924 12.080599,1.77499 16.78391,-0.62446 z m 405.024639,3.38166 c -5.03517,-2.48103 -6.12832,-5.00521 -7.11372,-16.4262 C 460.49599,72.871111 458.65304,23.66163 459.38626,19.753944 460.95228,11.407821 468.31401,8.0368777 485,8.0253899 c 10.42208,-0.00718 16.45972,2.4491071 22.68306,9.2281191 5.14619,5.605693 7.3205,12.353695 7.30717,22.677992 -0.0112,8.698441 -2.29959,14.718199 -8.32038,21.887538 l -3.62712,4.31904 7.23108,5.746271 c 3.97709,3.16045 9.14248,7.917738 11.47863,10.571751 3.82521,4.345664 4.24756,5.33886 4.24756,9.988522 0,4.527437 -0.40596,5.556514 -3.29761,8.359207 C 520.08485,103.34086 518.56082,104 515.3124,104 511.01647,104 510.66661,103.77855 492.5,89.560741 l -7,-5.47844 -0.2921,8.708849 c -0.28566,8.51675 -0.37285,8.79157 -3.95295,12.45885 -4.09064,4.19026 -6.82373,4.65605 -12.09106,2.06062 z m 10.76353,-4.94548 C 481.72142,100.08444 482,98.33708 482,89.365141 482,83.664314 482.3872,79 482.86045,79 c 1.35693,0 7.87293,4.606468 17.63955,12.470238 13.42033,10.805612 15.29413,11.441632 19.81291,6.725043 4.33402,-4.523745 3.70037,-8.243607 -2.52561,-14.826666 -2.86699,-3.031415 -8.50163,-7.986978 -12.52142,-11.012361 l -7.30871,-5.500696 4.16106,-4.677779 c 2.28858,-2.572779 5.50537,-7.52178 7.14843,-10.997782 2.67467,-5.65846 2.93871,-7.071565 2.52255,-13.5 -0.80437,-12.424769 -5.50877,-19.769868 -15.66624,-24.460079 -4.83517,-2.23264 -6.24599,-2.425938 -14,-1.918149 -18.96424,1.241914 -19.70233,2.160998 -19.41028,24.169985 0.22991,17.325586 1.94301,51.967542 2.96606,59.979187 0.79649,6.237319 3.81487,9.549059 8.70322,9.549059 2.56073,0 4.01723,-0.69204 5.54545,-2.63486 z M 480.68227,55.25 C 480.4426,54.8375 479.92551,48.969941 479.53319,42.210979 478.71311,28.082533 479.118,27 485.22244,27 c 3.19017,0 4.65062,0.673062 7.37756,3.4 1.87,1.87 3.39749,4.2325 3.39442,5.25 -0.0153,5.066828 -2.46046,9.946476 -7.51901,15.005026 -5.16806,5.168055 -6.8753,6.174677 -7.79314,4.594974 z m 9.51357,-11.639387 c 0.56305,-1.039162 1.40762,-3.227974 1.87684,-4.864026 0.73109,-2.549171 0.44033,-3.387427 -2.03286,-5.860613 -3.02712,-3.027119 -6.48195,-3.782148 -7.31946,-1.599617 -0.2715,0.707496 -0.2559,5.455624 0.0346,10.551395 l 0.52827,9.265039 2.94442,-2.801396 c 1.61943,-1.540767 3.4051,-3.651619 3.96815,-4.690782 z M 201.04427,101.42263 c -6.0789,-2.637011 -9.99799,-6.39254 -13.29228,-12.73753 l -3.21128,-6.1851 -0.0204,-31 c -0.0198,-30.199141 0.0374,-31.108088 2.21626,-35.183918 1.23014,-2.301156 3.24277,-4.888656 4.47251,-5.75 3.08309,-2.1594833 12.09892,-2.1040851 13.91844,0.08552 1.06348,1.279802 1.51227,8.427235 1.99359,31.75 0.34163,16.554118 0.94474,31.303335 1.34025,32.776038 0.92019,3.42643 2.13871,3.850077 13.0386,4.533171 13.61548,0.85328 16.5,2.972062 16.5,12.119853 0,4.428325 -0.38027,5.296032 -3.5348,8.065742 L 230.93041,103 217.7152,102.96086 c -9.46671,-0.028 -14.19542,-0.46436 -16.67093,-1.53823 z m 32.04633,-4.283414 c 2.39669,-2.963274 2.45925,-8.238614 0.13177,-11.112927 -1.52699,-1.885752 -3.2542,-2.314303 -12.25,-3.039442 C 208.56276,81.986527 207.18065,81.543263 205.7775,78.113615 205.15083,76.581884 204.45814,62.874784 204.1041,45 203.77185,28.225 203.13594,13.9375 202.69098,13.25 202.24602,12.5625 200.14853,12 198.02988,12 c -4.94083,0 -8.56779,4.013348 -9.71932,10.754754 -0.44581,2.609885 -0.70837,16.996299 -0.58347,31.969809 l 0.2271,27.224562 3.11825,5.525234 c 5.77509,10.2329 11.16665,12.616781 27.76816,12.277696 11.6122,-0.237178 12.45329,-0.391397 14.25,-2.612839 z m -75.47424,0.857903 C 155.62736,95.795535 154,93.329049 154,92.51604 c 0,-1.08265 -1.80622,-0.482225 -6.75,2.24384 -6.21885,3.429155 -7.37951,3.720984 -14.75,3.708642 -6.95885,-0.01165 -8.69605,-0.396021 -13.34835,-2.953415 C 108.91298,89.886844 101.30945,78.73335 98.46015,65.163082 94.921221,48.308316 95.788432,24.010925 100.24938,15.032592 102.66853,10.163704 107.88746,6 111.57116,6 c 1.25146,0 3.72402,1.2189415 5.49457,2.7087588 l 3.21917,2.7087592 -0.83766,12.041241 c -1.08621,15.613908 -0.75196,25.598329 1.10611,33.041241 2.1693,8.689581 6.12929,16.284529 9.36249,17.956477 2.45913,1.271667 3.07768,1.22568 5.80253,-0.431399 3.956,-2.405788 7.6258,-7.279048 10.60024,-14.076445 3.17927,-7.26547 3.33192,-8.034945 5.14783,-25.948633 1.97761,-19.508909 2.17416,-20.419427 5.17856,-23.98995 2.9592,-3.5168099 7.82374,-4.6705165 12.78672,-3.0325846 C 176.18261,9.2054601 176,7.8898272 176,54.299429 v 41.854417 l -2.92308,2.923077 C 170.71991,101.43394 169.29005,102 165.69329,102 c -3.93557,0 -4.8862,-0.47113 -8.07693,-4.002881 z M 170.54545,96.545455 173,94.090909 V 54.267961 C 173,8.4605155 173.27593,10 165.06574,10 c -2.65147,0 -5.28195,0.5625 -5.84552,1.25 -1.86149,2.270838 -3.11743,9.049036 -4.75294,25.651261 C 152.84466,53.372693 151.31883,59.332904 146.7619,67 c -4.26582,7.177311 -10.16455,12 -14.67744,12 -1.10818,0 -3.67971,-1.461752 -5.71452,-3.248337 -9.02435,-7.923485 -12.45877,-26.08032 -9.98673,-52.79702 0.77779,-8.405973 0.67974,-9.748831 -0.82142,-11.25 -2.73371,-2.7337092 -7.00987,-2.1492695 -9.96429,1.361859 -4.38507,5.211357 -5.936998,12.719019 -5.87756,28.433498 0.08186,21.643476 3.88863,34.890883 12.74785,44.362115 11.01129,11.771955 25.91201,12.564508 39.1051,2.079956 C 156.2285,84.24226 157,84.257554 157,88.04966 c 0,8.95448 8.04248,13.99877 13.54545,8.495795 z m 382.67134,2.893841 C 550.26798,97.373866 548,92.835568 548,89.000331 c 0,-1.920419 3.06484,-9.022729 8.05883,-18.675147 4.43236,-8.566887 7.86318,-16.086027 7.62405,-16.709201 C 563.44375,52.99281 558.4233,50.011779 552.52633,46.991471 538.94614,40.03597 536,36.921517 536,29.520967 c 0,-4.277809 0.50514,-5.996393 2.4147,-8.215203 2.0812,-2.418256 3.11942,-2.795625 7.5173,-2.732354 4.23846,0.06098 7.29407,1.193452 18.04269,6.686989 l 12.94008,6.61358 2.06445,-3.340355 c 1.13545,-1.837194 3.85592,-4.95884 6.0455,-6.936989 4.77304,-4.312157 10.07904,-4.876062 14.34042,-1.524055 2.22018,1.746391 2.63486,2.8612 2.63486,7.083414 0,6.574968 -3.61331,15.500845 -15.92696,39.344006 -12.5923,24.382719 -16.43013,30.848727 -19.5062,32.864246 -3.1631,2.072544 -10.43982,2.113454 -13.35005,0.07505 z m 11.49719,-2.95151 C 567.12183,94.801261 575.94114,79.150559 587.24745,56.5 c 12.41131,-24.864244 14.09816,-31.627762 8.54841,-34.275196 -4.41506,-2.106145 -8.78289,0.384199 -13.41566,7.649014 -2.13411,3.346568 -4.18157,6.09401 -4.54991,6.105426 C 577.46194,35.99066 571.01331,32.85 563.5,29 549.07855,21.610108 544.32633,20.489716 540.82874,23.654988 539.67341,24.700547 539,26.697599 539,29.078262 c 0,5.239389 3.54362,9.076279 12.3007,13.318719 3.95962,1.918267 9.57071,4.995759 12.46909,6.838872 l 5.2698,3.351115 -9.19613,18.073701 c -8.88749,17.467115 -9.15202,18.18018 -7.88198,21.246343 2.37233,5.727298 8.15171,7.803288 12.7525,4.580774 z M 257.78592,98.287212 C 253.92423,97.699404 250,92.668525 250,88.305628 c 0,-2.809507 0.84305,-4.383971 4.08136,-7.622284 l 4.08136,-4.081361 0.89496,-11.550991 C 259.54991,58.697946 259.96329,51.1375 259.97632,48.25 259.99702,43.661286 259.74844,43 258.00288,43 c -1.09841,0 -3.79841,-1.627363 -6,-3.616362 C 248.5391,36.254318 248,35.200374 248,31.557952 c 0,-4.893133 2.63795,-8.020137 8.08327,-9.581834 C 257.95521,21.439253 265.48688,21 272.82032,21 h 13.33353 l 3.04774,3.047748 c 2.72557,2.725562 2.9938,3.526441 2.53735,7.576009 C 291.22798,36.156942 287.11664,42 284.43791,42 282.61002,42 282,47.005357 282,62.00368 v 13.753679 l 2.92771,1.212696 c 4.75168,1.968212 6.41938,4.541872 6.49977,10.030701 0.10739,7.331681 -2.8461,9.933428 -12.55226,11.057383 -7.53689,0.872757 -16.2395,0.967285 -21.0893,0.229073 z m 23.4839,-3.919706 C 286.20286,93.6478 288,91.702785 288,87.083559 c 0,-4.199546 -1.91466,-6.532084 -6.25,-7.614056 L 279,78.783184 V 61.325851 c 0,-10.060953 0.43624,-18.272462 1.02964,-19.381242 0.56631,-1.058149 2.31752,-2.589893 3.89159,-3.403874 5.39866,-2.791759 6.00244,-10.905665 1.01033,-13.577364 -2.98883,-1.599571 -26.48849,-0.808171 -30.20554,1.017235 -3.02051,1.483346 -4.29536,4.650188 -3.22703,8.016219 0.83006,2.615265 6.12918,5.994345 9.40841,5.999437 L 263.3148,40 262.6824,56.750014 c -0.76881,20.362908 -1.24602,23.094035 -4.27646,24.474796 -1.27026,0.578768 -3.05329,2.619616 -3.96231,4.535219 -1.57021,3.308976 -1.55504,3.614184 0.30373,6.111443 1.13537,1.525375 3.3826,2.903855 5.35456,3.284561 3.38409,0.65333 13.99408,0.258097 21.1679,-0.788527 z M 306.5,96.1957 c -6.87889,-4.378057 -6.71301,-3.539809 -5.50652,-27.825812 1.77366,-35.702924 2.75445,-45.225954 5.03846,-48.921572 C 308.37762,15.652935 312.07317,13 315.01448,13 c 5.58483,0 14.11839,8.126054 22.33508,21.268523 l 5.4821,8.768522 0.33417,-11.940949 c 0.30852,-11.02453 0.52023,-12.138769 2.75848,-14.518523 3.35739,-3.569627 10.70978,-3.656543 14.75795,-0.174461 2.53801,2.183105 2.85557,3.213053 3.46869,11.25 0.37119,4.865788 0.71408,20.704388 0.76198,35.196888 L 365,89.2 l -3.4,3.4 c -4.67774,4.677741 -9.98344,4.758257 -15.1411,0.229773 -3.29601,-2.893941 -13.90508,-18.146491 -19.06572,-27.410613 l -2.10682,-3.782056 -0.67045,9.431448 c -1.25793,17.695592 -1.70633,20.001108 -4.49757,23.124772 -3.44202,3.851943 -9.34787,4.720311 -13.61834,2.002376 z m 11.77512,-5.362379 c 1.6032,-2.14731 2.09907,-5.59763 3.08219,-21.446166 L 322.52892,50.5 332.42911,66.924134 C 342.72942,84.012072 350.08197,93 353.7604,93 c 1.17044,0 3.39067,-1.084976 4.93384,-2.411059 2.76236,-2.373767 2.81117,-2.609637 3.15575,-15.25 0.1925,-7.061417 0.0279,-22.02399 -0.36576,-33.250161 -0.68704,-19.592094 -0.80962,-20.505078 -3.05454,-22.75 -2.94834,-2.948344 -7.47199,-3.054223 -10.0247,-0.234636 -1.63452,1.805396 -1.97907,4.210321 -2.42675,16.93843 -0.28697,8.158858 -0.79467,15.107194 -1.12823,15.440748 -0.33355,0.333554 -4.00456,-4.92624 -8.15778,-11.68843 -8.93251,-14.5437 -13.3418,-19.926187 -18.21948,-22.240801 -3.3485,-1.588964 -3.76519,-1.592495 -6.11655,-0.05183 -5.22031,3.42048 -5.98206,8.333147 -8.29528,53.497737 -0.94149,18.38213 -0.93355,18.511458 1.24578,20.29831 5.04488,4.136351 9.65648,3.971 12.96842,-0.464989 z"
         id="path2" />
      <path
         style="fill:#ffffff;fill-opacity:1;stroke:#000000;stroke-width:0.248973"
         d="M 46.901654,102.22213 C 39.79335,100.30642 32.202894,92.373113 29.017723,83.530403 28.052441,80.850576 27.687281,77.507856 27.365079,68.401892 26.87964,54.682594 27.584541,49.035386 30.790953,40.956039 c 1.469173,-3.701944 4.398617,-9.479233 6.249112,-12.324157 4.380886,-6.735108 10.314662,-12.434075 14.625877,-14.047108 3.696129,-1.382899 9.595721,-1.614024 13.68944,-0.536304 9.087329,2.392348 15.5489,10.092966 16.228337,19.340225 0.1969,2.679835 2.91e-4,3.54466 -1.097376,4.827037 -1.896845,2.216033 -3.883407,2.938955 -6.068542,2.208377 -1.412548,-0.472272 -4.646745,-2.777763 -8.191014,-5.838947 -3.966521,-3.425886 -5.607327,-4.583929 -6.494858,-4.583929 -0.838568,0 -2.153832,0.985476 -4.366188,3.271417 -3.815968,3.94289 -6.304995,8.130241 -8.266961,13.907712 -1.8023,5.3073 -2.669061,10.043337 -2.938976,16.058751 -0.274558,6.118907 0.581443,11.417475 2.491374,15.421365 1.859466,3.898101 4.084279,6.363762 5.742143,6.363762 1.009854,0 3.115674,-1.506099 7.858117,-5.620187 5.905435,-5.122988 8.528813,-6.72113 10.943269,-6.666553 3.739653,0.08453 6.513323,3.122051 6.523757,7.144335 0.01241,4.783625 -2.255545,8.907495 -7.854278,14.281607 -4.47764,4.297994 -8.485628,6.901268 -12.226963,7.941658 -2.371811,0.65956 -8.475617,0.7261 -10.735569,0.11703 z"
         id="path19"
         transform="translate(2.9876764,2.9876746)" />
      <path
         style="fill:#ffffff;fill-opacity:1;stroke:#000000;stroke-width:0.248973"
         d="m 160.83648,95.512071 c -4.04439,-1.330987 -6.70707,-5.599888 -6.71858,-10.771466 -0.005,-2.056479 -0.49303,-2.840664 -1.59681,-2.563629 -0.39116,0.09817 -2.01334,1.14537 -3.60484,2.327102 -3.70298,2.74955 -4.85225,3.469353 -7.74862,4.853067 -7.62436,3.642453 -15.31643,3.696102 -22.56156,0.157353 C 112.24843,86.409229 106.27598,80.073399 102.85529,72.805385 98.912479,64.428015 97.243382,55.3836 96.931724,40.707067 96.705236,30.041384 97.374927,22.395235 98.981967,17.298566 101.68097,8.7387872 107.74028,4.7491726 112.14845,8.6293994 c 1.77908,1.5660066 1.84677,2.2401516 1.11745,11.1278766 -0.78392,9.553003 -0.85193,22.456532 -0.14847,28.170004 1.5766,12.805176 5.36404,21.44151 11.3488,25.878197 0.93446,0.692747 2.23695,1.497487 2.89442,1.788317 4.93099,2.181212 12.88749,-4.163137 18.14814,-14.470951 3.20513,-6.280189 4.39572,-11.511943 5.99267,-26.333267 1.77796,-16.50138 2.50881,-21.131142 3.88611,-24.617693 0.96494,-2.4426803 2.12738,-2.9175747 7.19172,-2.9380681 4.10645,-0.016617 4.71926,0.2219288 5.60706,2.1826207 1.4923,3.2957454 1.61316,6.8164804 1.61316,46.9930694 v 34.757364 l -1.68057,1.622392 c -0.92431,0.892316 -2.17663,1.875448 -2.78292,2.184737 -1.18313,0.603545 -3.46971,0.876985 -4.49954,0.538073 z"
         id="path20"
         transform="translate(2.9876764,2.9876746)" />
      <path
         style="fill:#ffffff;fill-opacity:1;stroke:#000000;stroke-width:0.248973"
         d="m 207.21486,96.47773 c -5.02873,-0.422873 -8.86104,-1.523782 -11.57486,-3.325115 -3.01812,-2.003311 -5.36373,-5.02509 -9.12357,-11.753582 l -1.53881,-2.753799 -0.0245,-26.127056 c -0.025,-26.629896 0.10569,-31.536472 0.92135,-34.59213 1.66944,-6.254104 6.07135,-9.6325853 11.19869,-8.595033 2.12209,0.4294187 2.52454,0.752747 2.70532,2.173465 0.39461,3.101138 0.75324,12.680725 1.39615,37.294205 0.41844,16.019561 0.98212,25.15751 1.65099,26.764585 0.4947,1.188584 1.50521,2.215027 2.72083,2.763729 1.38417,0.62478 4.62546,1.106774 11.55793,1.718707 9.44168,0.833424 11.04943,1.176165 12.49977,2.664734 1.54783,1.588632 2.06644,3.05068 2.05714,5.79942 -0.006,1.909431 -0.11586,2.602501 -0.56766,3.596401 -1.27323,2.800908 -2.5185,3.699028 -5.67758,4.09484 -2.75656,0.345377 -15.14465,0.533656 -18.20117,0.276629 z"
         id="path21"
         transform="translate(2.9876764,2.9876746)" />
      <path
         style="fill:#ffffff;fill-opacity:1;stroke:#000000;stroke-width:0.248973"
         d="m 256.67345,91.919843 c -2.22774,-0.631647 -4.09216,-2.058212 -5.55955,-4.253889 -0.80562,-1.205464 -0.80838,-1.73846 -0.0191,-3.69723 0.91564,-2.272487 2.60327,-4.408191 4.37554,-5.537254 2.81005,-1.790202 3.32917,-3.881609 3.95637,-15.939276 0.24258,-4.663519 0.99897,-23.511279 0.99897,-24.892364 0,-0.59143 -0.0754,-0.627357 -1.31704,-0.627357 -3.03948,0 -6.37064,-1.462486 -8.79896,-3.863029 -1.31947,-1.304378 -1.56958,-1.701774 -1.84467,-2.931022 -0.57337,-2.562083 0.50129,-5.338462 2.5585,-6.609888 2.1141,-1.306585 7.77375,-2.000521 17.99205,-2.206024 7.93059,-0.159494 11.43905,0.08813 13.07519,0.922825 2.80833,1.432702 3.93336,5.716838 2.38883,9.09672 -0.85625,1.873713 -1.75079,2.807214 -4.32144,4.509643 -2.53523,1.678975 -3.24473,2.570991 -3.55339,4.467487 -0.45839,2.816482 -0.76813,13.799837 -0.69365,24.59737 l 0.0754,10.929441 1.99179,0.549603 c 2.74541,0.757555 3.64191,1.173526 4.81682,2.23499 1.52183,1.374883 2.1045,3.139025 1.97515,5.980192 -0.21887,4.80732 -1.92309,6.072745 -9.40619,6.984299 -4.51547,0.550053 -17.07978,0.741479 -18.69056,0.284763 z"
         id="path22"
         transform="translate(2.9876764,2.9876746)" />
      <path
         style="fill:#ffffff;fill-opacity:1;stroke:#000000;stroke-width:0.248973"
         d="m 307.63696,90.984539 c -2.4194,-0.599602 -5.92825,-2.961346 -6.58168,-4.430012 -0.57869,-1.300679 -0.47805,-6.819514 0.44105,-24.186819 2.10983,-39.867284 2.99919,-44.868309 8.54476,-48.04874 1.61101,-0.923925 2.34567,-0.927461 4.46919,-0.02151 5.29258,2.257958 9.2539,6.901581 18.49372,21.679125 5.29042,8.461124 8.53267,13.068069 8.92734,12.684912 0.3657,-0.355023 0.68138,-4.921019 1.41064,-20.403072 0.41359,-8.780462 0.86045,-10.882772 2.64655,-12.450988 2.08284,-1.82876 5.32463,-2.052097 7.80194,-0.537499 1.92054,1.174194 2.99781,2.741435 3.45152,5.021355 0.82253,4.133271 1.38678,20.994136 1.39558,41.702958 0.008,18.627997 -0.12127,21.33599 -1.11036,23.274765 -0.99125,1.942997 -4.79045,4.503976 -6.72117,4.530622 -1.37783,0.01902 -2.94056,-1.046399 -5.64458,-3.848272 -4.41577,-4.575564 -9.36612,-11.777568 -18.43511,-26.820303 -6.9987,-11.608732 -7.08382,-11.746065 -7.20539,-11.624494 -0.0562,0.05619 -0.43432,5.411607 -0.84028,11.900924 -1.29145,20.643788 -1.69665,24.518077 -2.82116,26.974324 -1.55473,3.395986 -5.09514,5.377792 -8.22256,4.602724 z"
         id="path23"
         transform="translate(2.9876764,2.9876746)" />
      <path
         style="fill:#ffffff;fill-opacity:1;stroke:#000000;stroke-width:0.248973"
         d="m 380.80403,103.61285 c -1.58721,-0.52578 -2.44402,-1.0493 -3.60145,-2.20052 -2.23868,-2.226667 -2.63707,-4.186644 -2.90087,-14.271821 -0.45351,-17.337353 2.6041,-32.466783 9.36471,-46.337766 3.03184,-6.220535 6.3165,-10.737771 11.04338,-15.187465 3.90855,-3.679341 7.55122,-5.789781 12.10903,-7.015573 2.18778,-0.588386 2.7852,-0.63826 7.84551,-0.654967 4.58395,-0.01513 5.73813,0.05584 7.07582,0.435102 5.87761,1.66643 11.47563,7.281531 14.57808,14.622557 2.82185,6.677081 4.93099,17.199099 6.70973,33.473363 1.98302,18.143232 2.33194,29.625378 1.00132,32.950926 -1.66886,4.170874 -9.03859,4.760284 -12.44036,0.994934 -1.97568,-2.186849 -3.07771,-5.654371 -3.86485,-12.160733 -0.27335,-2.259428 -0.79218,-6.271828 -1.15296,-8.916443 l -0.65596,-4.808388 -2.13979,0.142723 c -1.17688,0.0785 -5.83704,0.31329 -10.3559,0.521758 -4.51885,0.208467 -10.17676,0.542616 -12.57313,0.742551 -7.90296,0.659368 -8.91573,0.95934 -9.47337,2.805912 -0.16389,0.542717 -0.36181,4.611294 -0.48088,9.885347 -0.23247,10.29714 -0.27872,10.553993 -2.26776,12.596063 -2.11332,2.16967 -5.42083,3.1773 -7.8203,2.38244 z M 403.9585,59.906391 c 3.56032,-0.408713 9.36897,-1.000689 12.90812,-1.3155 l 6.43482,-0.572381 0.38182,-0.738352 c 0.86059,-1.664204 -0.0632,-8.867062 -1.8322,-14.286375 -0.99356,-3.043664 -2.53141,-5.939662 -3.99172,-7.516968 -2.13702,-2.308241 -3.52599,-2.69577 -6.2414,-1.741381 -2.83678,0.99705 -6.31918,3.884223 -8.35979,6.930904 -3.25737,4.863323 -8.7918,15.94297 -9.27437,18.566821 -0.14647,0.79636 -0.0934,1.038157 0.29184,1.32882 0.53793,0.405901 0.29007,0.422682 9.68288,-0.655588 z"
         id="path24"
         transform="translate(2.9876764,2.9876746)" />
      <path
         style="fill:#ffffff;fill-opacity:1;stroke:#000000;stroke-width:0.248973"
         d="m 469.49675,101.69874 c -3.11158,-0.78366 -5.27511,-3.240125 -6.24366,-7.089044 -1.63372,-6.492254 -4.12923,-64.791179 -3.18323,-74.364979 0.60777,-6.150764 2.1434,-8.644703 6.18302,-10.041525 4.41719,-1.5273801 18.70587,-2.4831445 22.48089,-1.503738 2.17141,0.56336 6.77973,2.792771 9.13546,4.419559 7.36162,5.083661 10.77988,12.828742 10.85728,24.600379 0.0237,3.603111 -0.0201,3.990044 -0.66053,5.833557 -2.0069,5.777234 -5.80378,11.914821 -10.87386,17.577413 -1.22872,1.372304 -2.23403,2.587237 -2.23403,2.699847 0,0.112613 2.15673,1.835889 4.79273,3.829502 11.04737,8.355154 18.30745,15.570236 19.73302,19.610703 0.54702,1.550423 0.47593,3.605299 -0.17095,4.941584 -0.82946,1.713426 -3.70334,4.600234 -5.23602,5.259577 -1.25241,0.538772 -1.32923,0.542942 -2.7459,0.149075 -2.52061,-0.700794 -5.13106,-2.453907 -13.31869,-8.944493 -11.96082,-9.481722 -17.58216,-13.373897 -18.2913,-12.664758 -0.41749,0.417488 -0.65498,3.472965 -0.81664,10.506678 -0.17445,7.590071 -0.39645,9.774967 -1.14161,11.235611 -0.70151,1.37506 -2.13734,2.901252 -3.27601,3.482152 -1.1162,0.56944 -3.63804,0.80338 -4.98997,0.4629 z m 11.1454,-49.460985 c 1.45576,-0.933588 7.58934,-7.176193 8.76075,-8.916473 2.11174,-3.13724 3.18119,-5.777486 3.59962,-8.886661 0.25381,-1.885979 0.23869,-2.010106 -0.40537,-3.326518 -0.99862,-2.041101 -4.29117,-5.400074 -6.22787,-6.353509 -1.47539,-0.72633 -1.74053,-0.773279 -4.3404,-0.76856 -6.27363,0.01139 -6.55107,0.995741 -5.34437,18.961789 0.20694,3.081039 0.48146,6.432943 0.61005,7.448676 0.36716,2.900337 1.08258,3.293831 3.34759,1.841256 z"
         id="path25"
         transform="translate(2.9876764,2.9876746)" />
      <path
         style="fill:#ffffff;fill-opacity:1;stroke:#000000;stroke-width:0.248973"
         d="m 555.27705,94.609238 c -2.50515,-0.692941 -4.66062,-2.616195 -5.96412,-5.321589 -0.92755,-1.925108 -0.88721,-3.521358 0.15495,-6.130706 0.43753,-1.09548 4.37322,-9.082311 8.74598,-17.748512 4.37277,-8.666201 7.95048,-15.797999 7.95048,-15.848444 0,-0.05044 -1.87663,-1.260218 -4.1703,-2.688387 -4.48415,-2.792099 -8.11145,-4.818084 -13.63126,-7.613584 -5.9701,-3.023547 -9.33337,-5.589656 -10.91879,-8.330815 -2.07291,-3.584025 -1.53799,-8.707672 1.10933,-10.625376 1.54219,-1.11716 3.28961,-1.385603 5.76049,-0.88494 3.48879,0.706921 6.67518,2.071727 18.46239,7.907889 6.29187,3.115273 11.6806,5.664133 11.97497,5.664133 0.59623,0 1.67176,-1.35724 5.09962,-6.435397 4.64542,-6.881888 8.58425,-9.109035 12.74278,-7.205198 4.50232,2.061233 4.10328,6.721761 -1.70638,19.929334 -0.91804,2.087065 -3.92628,8.332739 -6.68496,13.879277 -11.51875,23.159286 -19.97442,38.188684 -22.62101,40.207333 -1.69497,1.292822 -4.28328,1.803973 -6.30417,1.244982 z"
         id="path26"
         transform="translate(2.9876764,2.9876746)" />
      <path
         style="fill:#ffffff;fill-opacity:1;stroke:#000000;stroke-width:0.248973"
         d="m 516.99219,218.10111 c -0.87961,-0.35903 -1.8656,-1.00506 -2.39801,-1.57117 -1.88026,-1.99933 -1.8051,-0.6143 -3.35527,-61.82508 l -0.16789,-6.62957 -5.00655,-0.16729 c -8.10794,-0.27091 -13.76356,-1.17601 -17.31919,-2.77168 -1.64461,-0.73806 -4.10606,-3.08324 -4.37947,-4.17261 -0.31815,-1.2676 0.36763,-2.42812 3.07596,-5.2054 l 2.61572,-2.6823 14.58773,0.007 c 17.9017,0.009 42.23435,0.38773 47.00999,0.73244 5.26087,0.37975 7.90593,1.42606 9.4864,3.75256 0.49212,0.72441 0.57002,1.10174 0.49134,2.38001 -0.1113,1.80822 -0.95668,3.36093 -3.17813,5.83725 l -1.4413,1.60667 -15.03121,0.3436 c -8.26716,0.18898 -15.06486,0.37202 -15.10599,0.40675 -0.0411,0.0347 0.0975,1.95282 0.30801,4.2624 0.60447,6.63096 0.87078,16.96694 1.04797,40.67377 l 0.16469,22.0341 -1.56183,1.2225 c -2.24385,1.75634 -3.90144,2.37579 -6.35735,2.37579 -1.54089,0 -2.32995,-0.13803 -3.48562,-0.60975 z"
         id="path27"
         transform="translate(2.9876764,2.9876746)" />
      <path
         style="fill:#ffffff;fill-opacity:1;stroke:#000000;stroke-width:0.248973"
         d="m 436.69382,227.67054 c -1.02955,-0.0907 -2.54206,-0.35857 -3.36113,-0.59518 -5.94359,-1.717 -12.54614,-8.19957 -16.17866,-15.88469 -2.35033,-4.97245 -2.71065,-7.92494 -2.72697,-22.34474 -0.0109,-9.5914 0.0275,-10.54761 0.53494,-13.33371 1.225,-6.72589 5.0285,-15.78022 9.35481,-22.26941 4.51144,-6.76685 10.28398,-12.23347 14.47268,-13.70567 4.91136,-1.72621 11.31137,-1.55794 16.30082,0.42858 5.92998,2.36098 10.41652,7.12354 12.46862,13.23572 0.68407,2.03749 1.32788,6.35425 1.12595,7.54947 -0.38825,2.29801 -2.96354,4.70137 -5.23998,4.89015 -2.26917,0.18818 -4.28511,-0.97693 -9.56733,-5.5294 -4.06007,-3.49917 -6.2858,-5.12604 -7.01297,-5.12604 -2.12477,0 -7.84734,6.32377 -10.47659,11.57724 -2.16952,4.3349 -4.04082,10.73251 -4.79821,16.40417 -0.33871,2.53637 -0.40064,4.30992 -0.29559,8.46508 0.18245,7.2165 0.77999,9.7174 3.3874,14.17735 1.49325,2.5542 3.41285,4.39917 4.57709,4.39917 0.97043,0 2.9663,-1.3187 6.40276,-4.2304 7.52095,-6.37247 8.55607,-7.10937 11.01007,-7.83813 1.68423,-0.50017 3.43529,-0.17608 5.10119,0.94413 4.54265,3.05463 3.85559,10.2747 -1.60374,16.85326 -3.77234,4.54571 -9.18847,8.84719 -13.38714,10.63204 -2.46645,1.04848 -6.72367,1.59752 -10.08802,1.30101 z"
         id="path28"
         transform="translate(2.9876764,2.9876746)" />
      <path
         style="fill:#ffffff;fill-opacity:1;stroke:#000000;stroke-width:0.248973"
         d="m 373.58381,215.2142 c -3.25215,-0.23836 -6.25888,-1.05391 -8.18162,-2.21921 -0.7584,-0.45964 -2.36876,-1.85179 -3.57857,-3.09366 l -2.19965,-2.25794 0.17267,-20.17328 c 0.22054,-25.76621 0.57129,-31.87672 2.10916,-36.74497 1.562,-4.94459 6.3904,-9.64526 11.60688,-11.29983 2.69027,-0.8533 4.58854,-1.11711 8.03827,-1.11711 4.97901,0 8.65712,0.88104 11.34541,2.71764 1.65937,1.13365 3.48719,3.48108 4.20556,5.4011 0.51995,1.38969 0.52373,1.47385 0.1141,2.54645 -1.26347,3.30834 -5.26664,5.25078 -11.93048,5.78896 -1.78016,0.14377 -3.65174,0.36784 -4.15908,0.49794 -1.30691,0.33514 -2.28119,1.24953 -2.95087,2.7695 -0.53467,1.21352 -0.57956,1.66053 -0.59332,5.90786 l -0.0149,4.595 4.19401,0.68735 c 5.33256,0.87395 6.8739,1.26703 8.87707,2.26389 1.16179,0.57816 1.82903,1.11004 2.36524,1.88543 0.6997,1.01181 0.74625,1.22428 0.73641,3.36114 -0.009,1.97168 -0.10028,2.45392 -0.67243,3.55572 -1.74126,3.35312 -5.18033,4.5516 -13.10666,4.5675 l -4.32862,0.009 0.15004,1.05813 c 0.0825,0.58198 0.32166,2.17851 0.53142,3.54786 0.20975,1.36936 0.45395,3.90127 0.54267,5.62649 l 0.1613,3.13676 8.49088,-0.0246 c 8.25826,-0.0239 8.51816,-0.01 9.48677,0.5145 1.18373,0.64077 2.62947,2.10952 3.26798,3.31999 0.33656,0.63802 0.45921,1.40484 0.45798,2.86318 -10e-4,1.74258 -0.0988,2.17869 -0.77792,3.48562 -0.86536,1.66533 -2.94799,3.78037 -4.50416,4.57427 -2.29803,1.17237 -6.11263,1.88647 -12.13739,2.27214 -4.09474,0.26212 -3.82379,0.26291 -7.71816,-0.0225 z"
         id="path29"
         transform="translate(2.9876764,2.9876746)" />
      <path
         style="fill:#ffffff;fill-opacity:1;stroke:#000000;stroke-width:0.248973"
         d="m 293.04108,215.77837 c -1.81592,-0.60468 -2.65185,-1.05812 -4.18552,-2.27042 -2.12349,-1.67852 -2.16866,-1.84261 -2.12835,-7.73186 0.0192,-2.80717 0.32778,-10.53778 0.68572,-17.17913 2.17564,-40.36792 3.00724,-45.49719 7.917,-48.83134 2.17581,-1.47757 3.01964,-1.5108 5.65603,-0.22274 5.42535,2.65067 8.62617,6.49766 18.61751,22.37596 5.6471,8.97439 7.9826,12.19577 8.37805,11.55591 0.24605,-0.39812 0.63123,-5.05934 0.90034,-10.89546 0.7214,-15.6447 0.98727,-18.56761 1.83869,-20.21408 0.48554,-0.93892 1.98592,-2.27223 3.06374,-2.72257 0.4506,-0.18827 1.53322,-0.34231 2.40583,-0.34231 2.98808,0 5.96994,2.11397 6.7668,4.79728 0.75938,2.55712 1.16044,9.62075 1.65014,29.06303 0.30049,11.93016 0.15357,29.57806 -0.27974,33.60211 -0.30695,2.85055 -0.88089,4.13879 -2.4472,5.4929 -1.51617,1.31076 -4.09798,2.58711 -5.17166,2.55667 -2.81534,-0.0798 -8.34344,-6.11667 -15.34239,-16.75439 -1.48656,-2.25943 -5.63022,-8.95299 -9.20815,-14.87458 -3.57791,-5.9216 -6.55778,-10.71405 -6.62193,-10.64991 -0.0641,0.0641 -0.48461,5.97344 -0.93437,13.13177 -1.48671,23.66199 -1.76072,25.42963 -4.35484,28.09292 -2.10846,2.16468 -4.64023,2.8745 -7.2057,2.02024 z"
         id="path30"
         transform="translate(2.9876764,2.9876746)" />
      <path
         style="fill:#ffffff;fill-opacity:1;stroke:#000000;stroke-width:0.248973"
         d="m 220.4948,215.96969 c -1.5733,-0.3916 -3.92194,-1.76492 -5.29797,-3.09787 -1.18298,-1.14596 -1.29964,-1.36356 -1.46829,-2.73871 -0.22826,-1.86113 -0.0244,-7.92146 0.76634,-22.78101 1.97322,-37.08123 2.94331,-43.66794 6.90566,-46.88761 2.80549,-2.27966 3.57748,-2.37191 6.77163,-0.80917 3.66151,1.79139 6.34632,4.38495 10.45732,10.10187 2.21988,3.08706 2.50504,3.52299 8.2986,12.68589 4.41814,6.98758 7.30415,11.09102 7.80049,11.09102 0.23059,0 0.40013,-0.45183 0.51383,-1.36935 0.26186,-2.11313 0.67018,-8.93014 0.95442,-15.93427 0.44418,-10.94527 0.80834,-13.1848 2.43781,-14.99212 1.24254,-1.37816 2.52911,-1.92638 4.5297,-1.93013 1.94717,-0.004 3.62837,0.69838 5.07554,2.11944 1.82643,1.79348 2.21793,3.4051 2.62823,10.81925 0.56089,10.13522 0.83503,21.74687 0.84349,35.72761 0.009,14.52556 -0.18263,19.28024 -0.86834,21.56895 -0.55386,1.84861 -3.76278,4.47786 -6.30957,5.1698 -0.87577,0.23794 -1.14604,0.19717 -2.24076,-0.338 -4.66367,-2.27989 -10.76868,-10.62288 -24.64831,-33.68388 -2.7387,-4.55035 -5.03548,-8.27431 -5.10395,-8.27546 -0.0685,-0.001 -0.49679,6.00127 -0.95184,13.3387 -1.45943,23.53276 -1.7581,25.43078 -4.42073,28.09341 -1.90111,1.90112 -4.38568,2.69103 -6.6733,2.12164 z"
         id="path31"
         transform="translate(2.9876764,2.9876746)" />
      <path
         style="fill:#ffffff;fill-opacity:1;stroke:#000000;stroke-width:0.248973"
         d="m 164.87852,212.39029 c -7.90982,-1.50284 -14.00616,-5.52386 -18.89853,-12.46506 -5.97027,-8.47054 -7.01912,-12.3522 -7.23307,-26.76881 -0.1855,-12.49972 0.0381,-13.90383 3.22879,-20.27961 3.58162,-7.15686 6.6038,-10.25494 13.31061,-13.64489 5.31625,-2.6871 5.73807,-2.79823 10.52962,-2.77405 5.93408,0.0299 12.47222,1.33935 15.68529,3.14134 5.00532,2.80714 9.9898,8.74692 13.5412,16.13642 2.75436,5.73107 3.25871,8.23702 3.61944,17.98379 0.32813,8.86584 -0.014,12.01249 -1.90182,17.49176 -2.4207,7.02589 -6.11317,12.62653 -10.82853,16.42445 -2.23895,1.80333 -6.67747,4.13202 -8.78731,4.61031 -1.99623,0.45253 -10.13928,0.54836 -12.26569,0.14435 z m 7.65739,-17.21833 c 3.93698,-2.14277 7.41683,-7.062 8.73404,-12.34672 0.75741,-3.03879 0.92312,-8.3358 0.36515,-11.67269 -1.12913,-6.75271 -3.87092,-11.90721 -8.25895,-15.52666 -3.50091,-2.88772 -6.8157,-3.99192 -8.94722,-2.98044 -2.29797,1.09045 -6.70764,6.10564 -8.5028,9.67037 -2.40454,4.77477 -2.57885,13.20355 -0.40815,19.7356 1.50818,4.53839 4.39676,8.92175 7.33465,11.13021 3.89548,2.92828 6.84577,3.5347 9.68328,1.99033 z"
         id="path32"
         transform="translate(2.9876764,2.9876746)" />
    </g>
  </g>
</svg>
